<svg xmlns="http://www.w3.org/2000/svg" viewBox="0 0 359.47 226.17"><defs><style>.a{fill:none;}.b{fill:#d2232a;}.c{fill:#393839;}</style></defs><rect class="a" x="38.1" y="38.03" width="283.46" height="150.54"/><rect class="a" width="359.59" height="226.08"/><path class="b" d="M140.83,165.21l20.54-50.67h12.09c10.28-.41,6.4,7,5,10.06L151,188.18H129.3L99.91,114.54H122Z"/><path class="b" d="M216.87,188.13q-11.15,0-17.65-2.24A27.71,27.71,0,0,1,187.64,178c-6.31-7.06-9.47-16-9.47-26.83q0-19.65,11.39-29.39a26.56,26.56,0,0,1,10.85-5.58,66.31,66.31,0,0,1,16.46-1.67h21.92c5.05.21,5.67,3.22,5.78,5.1l0,0v10.64h-24.3c-8.07,0-13.71,1.8-16.92,5.45-3,3.46-4.49,8.67-4.49,15.66,0,7.91,2.47,13.67,7.38,17.21a18.15,18.15,0,0,0,6.58,3,48.7,48.7,0,0,0,9.92.79h21.85v15.73Z"/><path class="b" d="M252.29,114.52l0,0H292a55.19,55.19,0,0,1,13.37,1.25,19.79,19.79,0,0,1,8.35,4.65q7.74,7.05,7.76,22.39l-.05,40.63c0,2.68-1.57,4.81-5.94,4.72H301.22V140.53c0-3.64-.8-6.27-2.45-7.87s-4.27-2.39-8-2.39H272.5l0,53.19c0,2.68-1.58,4.81-5.94,4.72H252.24Z"/><path class="c" d="M44.46,40.44,56.2,51c17.34-7.39,39.44-11.4,53.08-12.61,19.49-1.73,34.3,3.56,49.72,16.34l24,22,27.93-20.53,0,0L184.45,78.07,195,87.76l.58-.05.18,0h0v0c.09,0,.07,0,0,.07l-.69.12L207.44,99.2l0,0L193.84,88l-7.53,1.25a9.26,9.26,0,0,0,1.89.69v0a8.72,8.72,0,0,1-2.35-.67L168.42,92.2l-9.24,1c-8.94,4.16-18.36,7.08-28.16,7.22-11,.17-22.4-3.4-32.3-9C81.81,86.08,64.4,76.29,57.83,59.65c5.26,12,16.9,19.62,29.93,24.29L61.16,57.22,38,67.23c5.79-3.43,12.81-7.94,20.81-12.36l-2.48-2.51A96.94,96.94,0,0,0,38.3,61.59c4.39-4,10.32-7.4,17-10.31L44.46,40.37ZM57.37,52l2.57,2.31c14.25-7.76,31.47-15,50.31-15.45a55.37,55.37,0,0,0-20.72,2.4C80.25,44.28,68.4,47.64,57.37,52Zm103.1,8.43C165.93,67,170.85,74.3,176.6,80.63c1.51-.86,3-1.68,4.49-2.54l.37-.28-21-17.35ZM183.16,79.2l-.94.78-3.91,2.51A59.38,59.38,0,0,0,185,88.43l8.66-.56L183.15,79.2Zm1,9.27c-.34-.2-.66-.43-1-.66l-5.52-4.91c-3.66,2.31-7.42,4.58-11.31,6.68l17.83-1.13ZM101,87.74a140.12,140.12,0,0,0,18.7,2.69,8.83,8.83,0,0,1-2.89-4A45.16,45.16,0,0,1,112,82.65c-4.27-3.8-9.28-9.53-10.08-15.65a15.39,15.39,0,0,1-.58-11.88,22.87,22.87,0,0,1,5.4-8.63,169.14,169.14,0,0,0-41.88,9.14l-2.36,1L90,81.32a72.12,72.12,0,0,0,11,6.39ZM133,90.43l21.68-.11,2-.12a153.4,153.4,0,0,0,19-9L157.41,65a9.63,9.63,0,0,1-.44,1.72c-3.12,9-10.49,15.75-18.35,20.7-.57.37-1.19.73-1.83,1.1a10.65,10.65,0,0,1-3.59,1.91l-.21.08ZM117.81,52.68l0,.14A11.15,11.15,0,0,1,122.36,51a14.48,14.48,0,0,1,3.35-1.11c-.94-.39-1.86-.76-2.74-1.08-2.75-1-6.74-2-9.71-.8-3.72,1.49-6.62,5.55-7.67,9.78,2.85-2,6.85-2.76,10.2-3a6.84,6.84,0,0,1,1.06-1.24,6.11,6.11,0,0,1,.91-.76l0-.14ZM115.9,70.94l-.23,2.11c.07.81,1.31,1.09,2,1.06A13.38,13.38,0,0,1,115.9,70.94Zm7.79,1.28,4.76-1.49a20.9,20.9,0,0,1-3.82-.81Zm14.56-12.31a17.2,17.2,0,0,0-3.33-1.22,9.66,9.66,0,0,1,3.72,2.69,3,3,0,0,0-.29-1.27l-.1-.17Zm-23.41-2.78a26.74,26.74,0,0,0-6.36,1.7,6.2,6.2,0,0,0-3.28,3,10,10,0,0,0,.41,2.39c1.4,4.53,5.22,7.69,9.56,9.44a6.91,6.91,0,0,1,0-4.81,18.87,18.87,0,0,1-.16-7.6,8.31,8.31,0,0,1-.25-4.16Zm-5.76,17.94a34.09,34.09,0,0,0,7.12,6.87,9.49,9.49,0,0,1,.21-1.59c.11-.6.25-1.22.39-1.89a23.31,23.31,0,0,1-7.7-3.39Zm13.51,10.48q1.14.48,2.34.9a6,6,0,0,0,1.11-.09,28.75,28.75,0,0,0,10.89-4.93,20.58,20.58,0,0,0,.91-6.19c-.63.35-1.27.67-1.91,1a5.08,5.08,0,0,1-.78,1c-2.06,2-5.53,2.3-8.68,1.8a26.11,26.11,0,0,1-4.43.18l-.35,1.63,0,2.51A2.94,2.94,0,0,0,122.59,85.55Zm15-13.88c-.07-.57-.16-1.12-.25-1.68q-.76.24-1.56.42a9,9,0,0,1,.64,1.9c.41-.2.8-.41,1.2-.64ZM135,64c-1.35-1.34-3.3-1.77-5.72-2.14L128,61.82l-.14,0-.81,2A15.8,15.8,0,0,0,135,64Zm-11.64,9.12-.46,2.16a27.94,27.94,0,0,0,12.61-2.53,6.2,6.2,0,0,0-.69-2.19,23.86,23.86,0,0,1-3.61.32Zm18.51,4.09a56.6,56.6,0,0,0,6.8-8.1c1.38-2,3.15-5.89,1.56-8.28-1.21-1.88-3.83-2.77-6.52-3.21,0,.05,0,.1.05.12a15.5,15.5,0,0,1,2.82,5.91,8.3,8.3,0,0,1-3,7.88c-.53.39-1.08.78-1.63,1.15a27.2,27.2,0,0,1-.09,4.51Zm-5.4-20c-.25,0-.57,0-.89,0,.44.16.87.35,1.3.53-.13-.16-.24-.34-.38-.5Zm-11.25.53a16.89,16.89,0,0,0-3.29.78c-1,.36-.16,1.6.44,2.35a11.43,11.43,0,0,1,2.34-2.79,3.35,3.35,0,0,1,.49-.34Zm16.28,11.13a5.78,5.78,0,0,0,.58-.53,4.38,4.38,0,0,0,1.4-2.53,7.89,7.89,0,0,1-2.13,2.28c0,.25.09.51.13.78Zm-24.76-4.27a19.92,19.92,0,0,0,0,2c.3-.29.62-.57.94-.83A12.74,12.74,0,0,1,116.75,64.59Zm.14,2.78a13.58,13.58,0,0,0,1.36,4.37c.37-1.47.77-2.95,1.24-4.4-.42-.32-.83-.67-1.2-1A7.12,7.12,0,0,0,116.89,67.37Zm-1.47,2.19a4.75,4.75,0,0,0-.25,2.09l.27-2S115.42,69.58,115.42,69.56Z"/><path class="b" d="M317.93,104.16a9.05,9.05,0,1,1,9.08,8.89A8.77,8.77,0,0,1,317.93,104.16Zm16.18,0a7.13,7.13,0,1,0-7.1,7.22A7,7,0,0,0,334.11,104.16ZM323.5,99.47h3.65c2,0,3.79.76,3.79,2.93a2.65,2.65,0,0,1-1.82,2.48l2.21,3.75h-2.21l-1.68-3.16h-2v3.16h-2Zm3.22,4.55c1.29,0,2.06-.54,2.06-1.53s-.53-1.49-2-1.49h-1.34v3Z"/></svg>