<svg xmlns="http://www.w3.org/2000/svg" viewBox="0 0 359.47 249.17"><defs><style>.a{fill:none;}.b{fill:#393839;}.c{fill:#d2232a;}</style></defs><rect class="a" x="38.11" y="37.87" width="283.46" height="172.91"/><rect class="a" x="0.01" y="-0.15" width="359.59" height="248.97"/><path class="b" d="M130.37,196.58h-1.9V199h-.94v1.66h.94V205a3.09,3.09,0,0,0,.71,2.23,2.66,2.66,0,0,0,2,.72,5.67,5.67,0,0,0,.79-.06l.83-.18.18-.06v-1.69h-.33l-.11,0-.43.15a2,2,0,0,1-1.24,0,.55.55,0,0,1-.29-.27,1.29,1.29,0,0,1-.15-.54c0-.23,0-.55,0-1v-3.69h2.57V199h-2.57Z"/><path class="b" d="M144.31,199H144a2.65,2.65,0,0,0-1.21.31,5.17,5.17,0,0,0-1,.64V199h-1.9v8.79h1.9v-6a3.37,3.37,0,0,1,.9-.6,2.52,2.52,0,0,1,1-.23h.4l.28,0h.39V199l-.21,0Z"/><polygon class="b" points="157.64 200.29 157.64 198.96 151.31 198.96 151.31 200.61 155.23 200.61 151.13 206.39 151.13 207.75 157.72 207.75 157.72 206.09 153.51 206.09 157.64 200.29"/><polygon class="b" points="167.99 204.62 165.9 198.96 163.86 198.96 166.97 207.09 165.37 210.81 167.41 210.81 172.07 198.96 170.07 198.96 167.99 204.62"/><path class="b" d="M189.46,199.52a2,2,0,0,0-.86-.6,3,3,0,0,0-2.5.21,5.68,5.68,0,0,0-1,.84,2.07,2.07,0,0,0-.81-.87,2.84,2.84,0,0,0-2.73,0,4.59,4.59,0,0,0-.71.5V199h-1.9v8.79h1.9v-6.33a5,5,0,0,1,.83-.61,1.64,1.64,0,0,1,1.46-.14.71.71,0,0,1,.31.33,2,2,0,0,1,.16.67c0,.32,0,.67,0,1v5h1.9v-5.7c0-.17,0-.31,0-.43v-.18a4.41,4.41,0,0,1,.88-.65,1.62,1.62,0,0,1,1.43-.12.73.73,0,0,1,.32.33,2,2,0,0,1,.16.67c0,.32,0,.66,0,1v5h1.89v-5.7a4.93,4.93,0,0,0-.19-1.5A2.78,2.78,0,0,0,189.46,199.52Z"/><path class="b" d="M203.62,199.43a3,3,0,0,0-1.15-.53,8,8,0,0,0-3,0c-.47.09-.85.17-1.13.25l-.18,0v1.86h.33l.1,0a7.11,7.11,0,0,1,1.26-.41,4.73,4.73,0,0,1,1.84-.08,1.28,1.28,0,0,1,.56.19.75.75,0,0,1,.32.36,1.44,1.44,0,0,1,.13.68v0c-.66,0-1.27.1-1.83.17a6.15,6.15,0,0,0-1.72.46,2.73,2.73,0,0,0-1.26,1.06,3,3,0,0,0-.4,1.6,3,3,0,0,0,.22,1.15,2.7,2.7,0,0,0,1.47,1.52,2.8,2.8,0,0,0,1.07.21,4.07,4.07,0,0,0,1-.11,4.77,4.77,0,0,0,.76-.32,4,4,0,0,0,.6-.38l0,0v.63h1.88v-5.92a3.68,3.68,0,0,0-.24-1.41A2.26,2.26,0,0,0,203.62,199.43Zm-.89,4v1.92a4.94,4.94,0,0,1-.87.59,2.27,2.27,0,0,1-1.08.26,1.42,1.42,0,0,1-1-.3,1.13,1.13,0,0,1-.32-.89,1,1,0,0,1,.29-.81,2,2,0,0,1,.81-.46,6.69,6.69,0,0,1,1.18-.21Z"/><rect class="b" x="213.17" y="196.13" width="2.09" height="1.95"/><path class="b" d="M211.86,200.62h1.49v6.55a6.71,6.71,0,0,1,0,1,1.52,1.52,0,0,1-.18.58.83.83,0,0,1-.42.33,2.28,2.28,0,0,1-1.16.09l-.4-.08h-.33v1.71l.21,0,.59.07.53,0a2.86,2.86,0,0,0,3.11-3.15V199h-3.39Z"/><path class="b" d="M246.84,198.73a3.15,3.15,0,0,0-1.39.32,5.23,5.23,0,0,0-.87.55V199h-1.9v8.79h1.9v-6.32a4.92,4.92,0,0,1,.94-.62,2,2,0,0,1,1.68-.12.81.81,0,0,1,.36.35,2.19,2.19,0,0,1,.19.7c0,.32.05.67.05,1v5h1.9v-5.63a3.75,3.75,0,0,0-.76-2.5A2.62,2.62,0,0,0,246.84,198.73Z"/><path class="b" d="M263.09,199.43a3,3,0,0,0-1.15-.53,8,8,0,0,0-3,0c-.47.09-.85.17-1.13.25l-.18,0v1.86H258l.09,0a7,7,0,0,1,1.27-.41,4.67,4.67,0,0,1,1.83-.08,1.28,1.28,0,0,1,.56.19.75.75,0,0,1,.32.36,1.42,1.42,0,0,1,.13.68v0c-.66,0-1.27.1-1.83.17a6.15,6.15,0,0,0-1.72.46,2.79,2.79,0,0,0-1.26,1.06,3.28,3.28,0,0,0-.18,2.75,2.7,2.7,0,0,0,1.47,1.52,2.8,2.8,0,0,0,1.07.21,4,4,0,0,0,1-.11,4.77,4.77,0,0,0,.76-.32,4,4,0,0,0,.6-.38l.05,0v.63h1.88v-5.92a3.68,3.68,0,0,0-.24-1.41A2.26,2.26,0,0,0,263.09,199.43Zm-.89,4v1.92a4.94,4.94,0,0,1-.87.59,2.27,2.27,0,0,1-1.08.26,1.42,1.42,0,0,1-1-.3,1.13,1.13,0,0,1-.32-.89,1,1,0,0,1,.29-.81,2,2,0,0,1,.81-.46,6.69,6.69,0,0,1,1.18-.21Z"/><path class="b" d="M276.94,199.13a4.79,4.79,0,0,0-.65-.25,3.86,3.86,0,0,0-2.61.18,3.53,3.53,0,0,0-1.18.92,5,5,0,0,0-.82,1.47,6.1,6.1,0,0,0-.29,2,7.07,7.07,0,0,0,.23,1.92,4.21,4.21,0,0,0,.67,1.43,2.84,2.84,0,0,0,1.06.9,3,3,0,0,0,1.36.31,3.35,3.35,0,0,0,.81-.09,3.46,3.46,0,0,0,.66-.23,3.79,3.79,0,0,0,.6-.35l.16-.13v.57h1.9V195.7h-1.9Zm-.73,1.47a4.35,4.35,0,0,1,.73.26v4.51a4,4,0,0,1-.89.55,2.35,2.35,0,0,1-1,.23,1.36,1.36,0,0,1-1.28-.65,4.16,4.16,0,0,1-.43-2.11,3.62,3.62,0,0,1,.55-2.18,1.76,1.76,0,0,1,1.49-.7A3.73,3.73,0,0,1,276.21,200.6Z"/><polygon class="b" points="292.64 200.29 292.64 198.96 286.3 198.96 286.3 200.61 290.23 200.61 286.13 206.39 286.13 207.75 292.72 207.75 292.72 206.09 288.51 206.09 292.64 200.29"/><path class="b" d="M303.31,198.73a3.69,3.69,0,0,0-2.88,1.24,5,5,0,0,0-1.08,3.39,5,5,0,0,0,1,3.35,4,4,0,0,0,5.78,0,5.89,5.89,0,0,0,0-6.8A3.67,3.67,0,0,0,303.31,198.73Zm0,7.55a1.72,1.72,0,0,1-1.48-.7,4.87,4.87,0,0,1,0-4.46,1.73,1.73,0,0,1,1.48-.69,1.7,1.7,0,0,1,1.47.69,3.73,3.73,0,0,1,.54,2.24,3.81,3.81,0,0,1-.54,2.23A1.73,1.73,0,0,1,303.31,206.28Z"/><polygon class="b" points="306.11 194.81 303.66 194.81 302.09 198.09 303.72 198.09 306.11 194.81"/><path class="b" d="M319.28,199l-.25,0h-.35a2.65,2.65,0,0,0-1.21.31,4.87,4.87,0,0,0-1,.64V199h-1.9v8.79h1.9v-6a3.37,3.37,0,0,1,.9-.6,2.52,2.52,0,0,1,1-.23h.4l.28,0h.39V199Z"/><path class="c" d="M140.84,165.05l20.54-50.67h12.09c10.28-.41,6.4,7,5,10.06L151,188H129.31L99.92,114.38H122Z"/><path class="c" d="M216.88,188q-11.15,0-17.65-2.24a27.53,27.53,0,0,1-11.58-7.93c-6.31-7.05-9.47-16-9.47-26.83q0-19.64,11.39-29.39A26.55,26.55,0,0,1,200.42,116a65.83,65.83,0,0,1,16.46-1.67H238.8c5,.2,5.67,3.22,5.78,5.09l0,0v10.63h-24.3c-8.07,0-13.71,1.8-16.92,5.46-3,3.45-4.49,8.66-4.49,15.66,0,7.9,2.47,13.66,7.38,17.2a17.83,17.83,0,0,0,6.58,3,47.87,47.87,0,0,0,9.92.8h21.85V188Z"/><path class="c" d="M252.3,114.36l0,0H292a55.1,55.1,0,0,1,13.37,1.26,19.77,19.77,0,0,1,8.35,4.64q7.74,7.06,7.76,22.4l-.05,40.63c0,2.67-1.57,4.8-5.94,4.71H301.23V140.37c0-3.63-.8-6.26-2.45-7.87s-4.27-2.39-8-2.39h-18.3l0,53.2c0,2.67-1.58,4.8-5.94,4.71H252.25Z"/><path class="b" d="M44.47,40.28,56.21,50.8c17.35-7.39,39.44-11.39,53.08-12.61,19.49-1.73,34.3,3.57,49.72,16.34l24,22L210.9,56l0,0-26.46,21.9L195,87.61l.58,0,.18,0h0v0c.09,0,.07.05,0,.07l-.69.11L207.45,99l0,0L193.85,87.86l-7.53,1.25a9.24,9.24,0,0,0,1.89.68v0a9.1,9.1,0,0,1-2.35-.67l-17.43,2.88-9.24.94c-8.94,4.17-18.36,7.09-28.16,7.23-11,.16-22.4-3.41-32.3-9C81.82,85.93,64.41,76.14,57.84,59.5c5.26,12,16.9,19.61,29.93,24.29L61.17,57.06,38,67.07c5.79-3.42,12.81-7.93,20.81-12.36l-2.48-2.5a96.93,96.93,0,0,0-18.06,9.22c4.39-4,10.32-7.39,17-10.3L44.47,40.21ZM57.38,51.86,60,54.16c14.25-7.75,31.47-15,50.31-15.44a55.36,55.36,0,0,0-20.72,2.39C80.26,44.13,68.41,47.49,57.38,51.86Zm103.1,8.43c5.47,6.53,10.38,13.85,16.13,20.18,1.51-.85,3-1.68,4.49-2.53l.37-.28-21-17.35Zm22.69,18.76-.94.78-3.91,2.5a59.48,59.48,0,0,0,6.67,6l8.66-.56-10.49-8.67Zm1,9.27c-.34-.21-.66-.44-1-.67l-5.52-4.9c-3.66,2.3-7.42,4.58-11.31,6.67l17.83-1.12Zm-83.11-.74a136.93,136.93,0,0,0,18.7,2.69,8.75,8.75,0,0,1-2.89-4A46.49,46.49,0,0,1,112,82.5C107.76,78.69,102.75,73,102,66.85A15.39,15.39,0,0,1,101.37,55a22.87,22.87,0,0,1,5.4-8.63,168.67,168.67,0,0,0-41.88,9.13l-2.36,1L90.05,81.16a71.34,71.34,0,0,0,11,6.4ZM133,90.27l21.68-.11,2-.11a153.4,153.4,0,0,0,19-9L157.42,64.79a10.42,10.42,0,0,1-.43,1.73c-3.13,9-10.5,15.74-18.36,20.7-.57.36-1.19.73-1.83,1.1a10.83,10.83,0,0,1-3.59,1.91l-.21.07ZM117.82,52.53l0,.14a11.17,11.17,0,0,1,4.58-1.85,14.46,14.46,0,0,1,3.35-1.1c-.94-.39-1.86-.76-2.73-1.08-2.76-1-6.75-2-9.72-.81-3.72,1.5-6.62,5.55-7.67,9.78,2.85-2,6.85-2.76,10.2-3a8.41,8.41,0,0,1,2-2l0-.14Zm-1.91,18.26-.23,2.11c.07.81,1.31,1.08,2,1A13.51,13.51,0,0,1,115.91,70.79Zm7.79,1.28,4.76-1.5a20.89,20.89,0,0,1-3.82-.8Zm14.56-12.32a18.62,18.62,0,0,0-3.33-1.22,9.68,9.68,0,0,1,3.72,2.7,2.94,2.94,0,0,0-.29-1.27c0-.07-.08-.14-.1-.18ZM114.85,57a27.22,27.22,0,0,0-6.36,1.7,6.2,6.2,0,0,0-3.28,3,10,10,0,0,0,.41,2.4c1.4,4.53,5.22,7.68,9.56,9.43a6.91,6.91,0,0,1,0-4.81,18.87,18.87,0,0,1-.16-7.6,8.31,8.31,0,0,1-.25-4.16Zm-5.76,18a33.79,33.79,0,0,0,7.12,6.86,9.63,9.63,0,0,1,.21-1.59c.11-.59.25-1.22.39-1.88a23.61,23.61,0,0,1-7.7-3.39ZM122.6,85.39q1.14.49,2.34.9a6,6,0,0,0,1.11-.09,28.88,28.88,0,0,0,10.89-4.92,20.69,20.69,0,0,0,.91-6.2c-.63.35-1.27.67-1.91,1a5.43,5.43,0,0,1-.78,1c-2.06,2-5.53,2.29-8.68,1.79a26.06,26.06,0,0,1-4.43.19l-.35,1.63,0,2.51A2.93,2.93,0,0,0,122.6,85.39Zm15-13.88c-.07-.57-.16-1.12-.25-1.67-.51.16-1,.3-1.56.41a9.13,9.13,0,0,1,.64,1.91c.41-.21.8-.41,1.2-.65ZM135,63.87c-1.35-1.33-3.3-1.77-5.72-2.14L128,61.67l-.14,0-.8,2A15.87,15.87,0,0,0,135,63.87ZM123.38,73l-.46,2.16a27.93,27.93,0,0,0,12.61-2.52,6.25,6.25,0,0,0-.69-2.2,22.62,22.62,0,0,1-3.6.33Zm18.51,4.1a56.67,56.67,0,0,0,6.8-8.11c1.38-2,3.15-5.89,1.56-8.28-1.21-1.87-3.83-2.77-6.52-3.2,0,0,0,.09.05.11a15.54,15.54,0,0,1,2.82,5.92,8.29,8.29,0,0,1-3,7.87c-.53.39-1.08.78-1.63,1.15a27.3,27.3,0,0,1-.09,4.52ZM136.5,57c-.26,0-.58,0-.9,0l1.3.53c-.13-.16-.24-.34-.38-.5Zm-11.26.53a18.47,18.47,0,0,0-3.29.78c-1,.37-.16,1.61.44,2.35a11.82,11.82,0,0,1,2.34-2.79,3.35,3.35,0,0,1,.49-.34Zm16.28,11.14a7.29,7.29,0,0,0,.58-.53,4.41,4.41,0,0,0,1.4-2.53,7.89,7.89,0,0,1-2.13,2.28c0,.25.09.5.13.78Zm-24.76-4.28a20,20,0,0,0,0,2,10.34,10.34,0,0,1,.94-.83A12.86,12.86,0,0,1,116.76,64.43Zm.14,2.78a13.64,13.64,0,0,0,1.36,4.38c.37-1.47.77-3,1.24-4.4-.42-.32-.83-.67-1.2-1A8,8,0,0,0,116.9,67.21Zm-1.47,2.19a4.79,4.79,0,0,0-.25,2.09l.27-2S115.43,69.42,115.43,69.4Z"/><path class="c" d="M317.93,104.16a9.05,9.05,0,1,1,9.08,8.89A8.77,8.77,0,0,1,317.93,104.16Zm16.18,0a7.13,7.13,0,1,0-7.1,7.22A7,7,0,0,0,334.11,104.16ZM323.5,99.47h3.65c2,0,3.79.76,3.79,2.93a2.65,2.65,0,0,1-1.82,2.48l2.21,3.75h-2.21l-1.68-3.16h-2v3.16h-2Zm3.22,4.55c1.29,0,2.06-.54,2.06-1.53s-.53-1.49-2-1.49h-1.34v3Z"/></svg>